<svg xmlns="http://www.w3.org/2000/svg" viewBox="0 0 67.3 63.71"><defs><style>.cls-1,.cls-2{fill:none;stroke:#ea2893;stroke-miterlimit:10;stroke-width:3px;}.cls-1{stroke-linecap:round;}</style></defs><title>bomb</title><g id="Layer_2" data-name="Layer 2"><g id="Layer_1-2" data-name="Layer 1"><path class="cls-1" d="M45,12.35A16.82,16.82,0,0,1,56.78,9.51"/><path class="cls-1" d="M50.1,18.92l-2.91,4.22a25.15,25.15,0,0,0-6.65-6.64,24.55,24.55,0,0,0-5.93-3L37.08,10a2.52,2.52,0,0,1,3.5-.64l4.42,3,4.46,3.08A2.51,2.51,0,0,1,50.1,18.92Z"/><path class="cls-1" d="M51.52,37.2A25,25,0,1,1,34.61,13.54a24.55,24.55,0,0,1,5.93,3,25.15,25.15,0,0,1,6.65,6.64A24.85,24.85,0,0,1,51.52,37.2Z"/><path class="cls-1" d="M9,32c2.39-6.84,8.18-11.68,14.77-12.32"/><line class="cls-2" x1="53.8" y1="0.21" x2="54.64" y2="6.12"/><line class="cls-2" x1="58.44" y1="6.54" x2="62.23" y2="1.06"/><line class="cls-2" x1="60.55" y1="8.65" x2="67.3" y2="8.65"/><line class="cls-2" x1="60.13" y1="12.44" x2="65.61" y2="14.97"/><line class="cls-2" x1="56.75" y1="13.71" x2="56.75" y2="19.61"/></g></g></svg>