<svg xmlns="http://www.w3.org/2000/svg" viewBox="0 0 138.43 187.29"><defs><style>.cls-1{fill:none;stroke:#ea2893;stroke-linecap:round;stroke-miterlimit:10;stroke-width:5px;}</style></defs><title>crown</title><g id="Layer_2" data-name="Layer 2"><g id="Layer_1-2" data-name="Layer 1"><path class="cls-1" d="M122.4,132.9l-90.91,28V47l3.73-6.1a.63.63,0,0,1,.83-.23l8.76,4.56Z"/><path class="cls-1" d="M60.41,52a.63.63,0,0,1-.77,1L44.81,45.21l-8.76-4.56a.63.63,0,0,0-.83.23L31.49,47,24.86,57.83a.63.63,0,0,1-1.17-.33V40.27a.63.63,0,0,0-.4-.59L2.9,31.62a.63.63,0,0,1,.16-1.21l20.07-2.34a.63.63,0,0,0,.56-.62V3.13a.63.63,0,0,1,1.21-.24l7.75,18.22a.64.64,0,0,0,.66.38L60,18.09a.63.63,0,0,1,.46,1.13L44.13,31.37a.63.63,0,0,0-.11.91Z"/><rect class="cls-1" x="18.38" y="146.74" width="119.67" height="24" rx="12" transform="translate(-43.2 30) rotate(-17.09)"/><line class="cls-1" x1="44.75" y1="156.47" x2="38.32" y2="183.55"/><line class="cls-1" x1="59.36" y1="151.98" x2="54.8" y2="178.49"/><line class="cls-1" x1="77.06" y1="146.54" x2="71.98" y2="173.21"/><line class="cls-1" x1="100.38" y1="139.37" x2="98.08" y2="165.18"/></g></g></svg>