<svg xmlns="http://www.w3.org/2000/svg" viewBox="0 0 165.67 112"><defs><style>.cls-1{fill:none;stroke:#050505;stroke-miterlimit:10;stroke-width:4px;}</style></defs><title>Asset 2</title><g id="Layer_2" data-name="Layer 2"><g id="Layer_1-2" data-name="Layer 1"><path class="cls-1" d="M163.65,3.22,80.92,110a.1.1,0,0,1-.14,0L52.56,74.49,41.2,60.2a.14.14,0,0,1,0-.21L163.55,3.08A.09.09,0,0,1,163.65,3.22Z"/><path class="cls-1" d="M162.57,2.55,28.81,46.15a.44.44,0,0,1-.46-.11L2.13,19.24a.45.45,0,0,1,.28-.76L162.45,2A.28.28,0,0,1,162.57,2.55Z"/><path class="cls-1" d="M163,3.61,41.33,59.54a.39.39,0,0,0-.18.18L29.76,87.24a.29.29,0,0,1-.56-.1L28,46.66a.34.34,0,0,1,.24-.34L162.75,3.07A.29.29,0,0,1,163,3.61Z"/><path class="cls-1" d="M51.86,74.07l-22,13.82a.29.29,0,0,1-.41-.37L40.54,59.69a.33.33,0,0,1,.57-.09l10.83,14A.31.31,0,0,1,51.86,74.07Z"/></g></g></svg>