<svg xmlns="http://www.w3.org/2000/svg" viewBox="0 0 73.91 80.24"><defs><style>.cls-1{fill:none;stroke:#000;stroke-miterlimit:10;stroke-width:4px;}</style></defs><title>point2</title><g id="Layer_2" data-name="Layer 2"><g id="Layer_1-2" data-name="Layer 1"><circle class="cls-1" cx="19.32" cy="41.8" r="11.02"/><path class="cls-1" d="M19.16,56.51h0A17.16,17.16,0,0,1,36.32,73.67v4.57a0,0,0,0,1,0,0H2a0,0,0,0,1,0,0V73.67A17.16,17.16,0,0,1,19.16,56.51Z"/><circle class="cls-1" cx="57.28" cy="42.46" r="9.48"/><path class="cls-1" d="M57.15,55.85h0A14.76,14.76,0,0,1,71.91,70.61v3.66a0,0,0,0,1,0,0H42.39a0,0,0,0,1,0,0V70.61A14.76,14.76,0,0,1,57.15,55.85Z"/><path class="cls-1" d="M68,4.7V24.49a2.7,2.7,0,0,1-2.7,2.7H38.91l-7,6.3v-6.3H29.84a2.7,2.7,0,0,1-2.7-2.7V4.7A2.7,2.7,0,0,1,29.84,2H65.25A2.7,2.7,0,0,1,68,4.7Z"/></g></g></svg>