<svg xmlns="http://www.w3.org/2000/svg" viewBox="0 0 74.75 51.83"><defs><style>.cls-1{fill:#e5e5db;stroke:#020202;stroke-miterlimit:10;stroke-width:3px;}.cls-2{font-size:19.89px;font-family:Futura-Medium, Futura;font-weight:500;}</style></defs><title>point1</title><g id="Layer_2" data-name="Layer 2"><g id="Layer_1-2" data-name="Layer 1"><path class="cls-1" d="M59,50.11H3.64a1.92,1.92,0,0,1-2.06-1.74V3.25A1.92,1.92,0,0,1,3.64,1.5h32L61,37.18V48.37A1.93,1.93,0,0,1,59,50.11Z"/><path class="cls-1" d="M60.35,6.54V46.62a1.13,1.13,0,0,1-1.1,1.17H6.33a1.14,1.14,0,0,1-1.11-1.17V15.22l0,0L14,5.72a1.05,1.05,0,0,1,.79-.35H59.25A1.13,1.13,0,0,1,60.35,6.54Z"/><polyline class="cls-1" points="5.22 15.21 5.24 15.2 14.29 5.37"/><path class="cls-1" d="M14.31,5.37v9.56a.27.27,0,0,1-.26.27H5.85a.27.27,0,0,1-.19-.46L14.3,5.37Z"/><path class="cls-1" d="M59.51,50.33H3a1.48,1.48,0,0,1-1.41-2L13.83,12.23a1.5,1.5,0,0,1,1.41-1H71.76a1.48,1.48,0,0,1,1.41,2L60.92,49.33A1.49,1.49,0,0,1,59.51,50.33Z"/><text class="cls-2" transform="translate(22.97 36.58)">job</text></g></g></svg>